<?xml version="1.0" standalone="no"?>
<svg xmlns:xlink="http://www.w3.org/1999/xlink" id="wave" style="transform:rotate(0deg); transition: 0.3s" viewBox="0 0 1440 380" version="1.1" xmlns="http://www.w3.org/2000/svg"><defs><linearGradient id="sw-gradient-0" x1="0" x2="0" y1="1" y2="0"><stop stop-color="rgba(240, 173, 23, 1)" offset="0%"/><stop stop-color="rgba(240, 173, 23, 1)" offset="100%"/></linearGradient></defs><path style="transform:translate(0, 0px); opacity:1" fill="url(#sw-gradient-0)" d="M0,0L1440,0L2880,152L4320,76L5760,76L7200,76L8640,342L10080,114L11520,342L12960,342L14400,0L15840,228L17280,38L18720,266L20160,76L21600,190L23040,152L24480,304L25920,0L27360,304L28800,304L30240,304L31680,152L33120,76L34560,304L34560,380L33120,380L31680,380L30240,380L28800,380L27360,380L25920,380L24480,380L23040,380L21600,380L20160,380L18720,380L17280,380L15840,380L14400,380L12960,380L11520,380L10080,380L8640,380L7200,380L5760,380L4320,380L2880,380L1440,380L0,380Z"/></svg>