<?xml version="1.0" standalone="no"?>
<svg xmlns:xlink="http://www.w3.org/1999/xlink" id="wave" style="transform:rotate(0deg); transition: 0.3s" viewBox="0 0 1440 490" version="1.1" xmlns="http://www.w3.org/2000/svg"><defs><linearGradient id="sw-gradient-0" x1="0" x2="0" y1="1" y2="0"><stop stop-color="rgba(225.829, 158.063, 24.942, 1)" offset="0%"/><stop stop-color="rgba(255, 179, 11, 1)" offset="100%"/></linearGradient></defs><path style="transform:translate(0, 0px); opacity:1" fill="url(#sw-gradient-0)" d="M0,147L80,171.5C160,196,320,245,480,236.8C640,229,800,163,960,130.7C1120,98,1280,98,1440,122.5C1600,147,1760,196,1920,228.7C2080,261,2240,278,2400,269.5C2560,261,2720,229,2880,245C3040,261,3200,327,3360,310.3C3520,294,3680,196,3840,147C4000,98,4160,98,4320,147C4480,196,4640,294,4800,343C4960,392,5120,392,5280,334.8C5440,278,5600,163,5760,171.5C5920,180,6080,310,6240,318.5C6400,327,6560,212,6720,138.8C6880,65,7040,33,7200,49C7360,65,7520,131,7680,196C7840,261,8000,327,8160,318.5C8320,310,8480,229,8640,196C8800,163,8960,180,9120,187.8C9280,196,9440,196,9600,187.8C9760,180,9920,163,10080,138.8C10240,114,10400,82,10560,65.3C10720,49,10880,49,11040,81.7C11200,114,11360,180,11440,212.3L11520,245L11520,490L11440,490C11360,490,11200,490,11040,490C10880,490,10720,490,10560,490C10400,490,10240,490,10080,490C9920,490,9760,490,9600,490C9440,490,9280,490,9120,490C8960,490,8800,490,8640,490C8480,490,8320,490,8160,490C8000,490,7840,490,7680,490C7520,490,7360,490,7200,490C7040,490,6880,490,6720,490C6560,490,6400,490,6240,490C6080,490,5920,490,5760,490C5600,490,5440,490,5280,490C5120,490,4960,490,4800,490C4640,490,4480,490,4320,490C4160,490,4000,490,3840,490C3680,490,3520,490,3360,490C3200,490,3040,490,2880,490C2720,490,2560,490,2400,490C2240,490,2080,490,1920,490C1760,490,1600,490,1440,490C1280,490,1120,490,960,490C800,490,640,490,480,490C320,490,160,490,80,490L0,490Z"/></svg>