<?xml version="1.0" standalone="no"?>
<svg xmlns:xlink="http://www.w3.org/1999/xlink" id="wave" style="transform:rotate(0deg); transition: 0.3s" viewBox="0 0 1440 490" version="1.1" xmlns="http://www.w3.org/2000/svg"><defs><linearGradient id="sw-gradient-0" x1="0" x2="0" y1="1" y2="0"><stop stop-color="rgba(240, 173, 23, 1)" offset="0%"/><stop stop-color="rgba(240, 173, 23, 1)" offset="100%"/></linearGradient></defs><path style="transform:translate(0, 0px); opacity:1" fill="url(#sw-gradient-0)" d="M0,98L60,122.5C120,147,240,196,360,212.3C480,229,600,212,720,204.2C840,196,960,196,1080,220.5C1200,245,1320,294,1440,326.7C1560,359,1680,376,1800,343C1920,310,2040,229,2160,179.7C2280,131,2400,114,2520,89.8C2640,65,2760,33,2880,49C3000,65,3120,131,3240,138.8C3360,147,3480,98,3600,81.7C3720,65,3840,82,3960,138.8C4080,196,4200,294,4320,310.3C4440,327,4560,261,4680,212.3C4800,163,4920,131,5040,98C5160,65,5280,33,5400,16.3C5520,0,5640,0,5760,16.3C5880,33,6000,65,6120,98C6240,131,6360,163,6480,171.5C6600,180,6720,163,6840,196C6960,229,7080,310,7200,302.2C7320,294,7440,196,7560,171.5C7680,147,7800,196,7920,187.8C8040,180,8160,114,8280,106.2C8400,98,8520,147,8580,171.5L8640,196L8640,490L8580,490C8520,490,8400,490,8280,490C8160,490,8040,490,7920,490C7800,490,7680,490,7560,490C7440,490,7320,490,7200,490C7080,490,6960,490,6840,490C6720,490,6600,490,6480,490C6360,490,6240,490,6120,490C6000,490,5880,490,5760,490C5640,490,5520,490,5400,490C5280,490,5160,490,5040,490C4920,490,4800,490,4680,490C4560,490,4440,490,4320,490C4200,490,4080,490,3960,490C3840,490,3720,490,3600,490C3480,490,3360,490,3240,490C3120,490,3000,490,2880,490C2760,490,2640,490,2520,490C2400,490,2280,490,2160,490C2040,490,1920,490,1800,490C1680,490,1560,490,1440,490C1320,490,1200,490,1080,490C960,490,840,490,720,490C600,490,480,490,360,490C240,490,120,490,60,490L0,490Z"/></svg>